<svg width="25" height="18" viewBox="0 0 25 18" fill="none" xmlns="http://www.w3.org/2000/svg">
<path d="M24.4886 1.87637C21.1261 4.50537 15.2259 9.13059 13.4917 10.5727C13.2589 10.7674 13.0092 10.8663 12.75 10.8663C12.4913 10.8663 12.2421 10.7683 12.0098 10.5746C10.2742 9.13104 4.37398 4.50537 1.01141 1.87637C0.802055 1.71301 0.770138 1.42586 0.939629 1.22613C1.33144 0.764619 1.91561 0.5 2.5417 0.5H22.9583C23.5844 0.5 24.1686 0.764619 24.5604 1.22618C24.7298 1.42586 24.6979 1.71301 24.4886 1.87637Z" fill="#689493"/>
<path d="M0.796061 3.83693C0.976986 3.75918 1.18983 3.7863 1.34037 3.90505C5.06935 6.82346 9.82857 10.5643 11.3259 11.8099C12.1664 12.5103 13.3327 12.5103 14.1751 11.809C15.7712 10.4814 21.1156 6.28689 24.1596 3.90501C24.3112 3.78626 24.5245 3.76006 24.7039 3.83689C24.8843 3.91424 25 4.08083 25 4.26443V16.1148C25 17.1544 24.0844 17.9997 22.9583 17.9997H2.54164C1.41564 17.9997 0.500002 17.1544 0.500002 16.1148V4.26443C0.500002 4.08083 0.61566 3.9138 0.796061 3.83693Z" fill="#689493"/>
</svg>
