<?xml version="1.0" encoding="UTF-8"?>
<!DOCTYPE svg PUBLIC "-//W3C//DTD SVG 1.1//EN" "http://www.w3.org/Graphics/SVG/1.1/DTD/svg11.dtd">
<!-- Creator: CorelDRAW 2019 (64 Bit) -->
<svg xmlns="http://www.w3.org/2000/svg" xml:space="preserve" width="8.4666mm" height="8.4666mm" version="1.1" style="shape-rendering:geometricPrecision; text-rendering:geometricPrecision; image-rendering:optimizeQuality; fill-rule:evenodd; clip-rule:evenodd"
viewBox="0 0 846.66 846.66"
 xmlns:xlink="http://www.w3.org/1999/xlink">
 <defs>
  <style type="text/css">
   <![CDATA[
    .fil0 {fill:#F23F35}
    .fil1 {fill:#FF4940}
    .fil2 {fill:white}
   ]]>
  </style>
 </defs>
 <g id="Camada_x0020_1">
  <metadata id="CorelCorpID_0Corel-Layer"/>
  <path class="fil0" d="M837.01 308.08c0,70 -26.09,134.11 -82.1,201.7 -50.13,60.47 -122.14,121.85 -205.55,192.92 -28.51,24.28 -60.8,51.81 -94.31,81.14 -8.78,7.67 -20.03,11.94 -31.71,12.02l-0.3 0c-11.78,0 -23.14,-4.28 -32,-12.03 -33.45,-29.25 -65.7,-56.75 -94.14,-80.99l-0.15 -0.11c-83.39,-71.08 -155.45,-132.47 -205.56,-192.94 -56.03,-67.59 -82.11,-131.7 -82.11,-201.7 0,-68.02 23.32,-130.79 65.68,-176.74 42.86,-46.48 101.67,-72.08 165.61,-72.08 47.8,0 91.55,15.1 130.09,44.9 19.45,15.05 37.06,33.44 52.59,54.93l0.3 -0.38c15.46,-21.32 32.98,-39.59 52.3,-54.54 38.53,-29.8 82.3,-44.9 130.08,-44.9 63.95,0 122.75,25.6 165.62,72.08 42.35,45.95 65.68,108.7 65.68,176.74l-0.02 -0.02zm0 0z"/>
  <path class="fil1" d="M837.01 308.08c0,70 -26.09,134.11 -82.1,201.7 -50.13,60.47 -122.14,121.85 -205.55,192.92 -28.51,24.28 -60.8,51.81 -94.31,81.14 -8.78,7.67 -20.03,11.94 -31.71,12.02l0 -637.16c15.46,-21.32 32.98,-39.59 52.3,-54.54 38.53,-29.8 82.3,-44.9 130.08,-44.9 63.95,0 122.75,25.6 165.62,72.08 42.35,45.95 65.68,108.7 65.68,176.74l-0.01 0zm0 0z"/>
  <g id="_2611241912048">
   <g>
    <path class="fil2" d="M211.94 317.54c34.46,0 62.49,-37.62 62.49,-83.86 0,-46.25 -28.03,-83.87 -62.49,-83.87 -34.45,0 -62.48,37.62 -62.48,83.87 0,46.24 28.03,83.86 62.48,83.86z"/>
    <path class="fil2" d="M397.28 399.11c-1.28,-1.74 -2.51,-3.39 -3.16,-4.81 -13.98,-29.9 -52.28,-65.16 -114.33,-66.04l-2.38 -0.01c-61.1,0 -99.11,33.39 -114.32,64.65 -0.53,1.07 -1.69,2.46 -2.91,3.93 -1.45,1.72 -2.88,3.48 -4.11,5.39 -12.85,19.99 -19.4,42.49 -18.43,63.36 1.01,22.16 10.29,39.96 26.08,50.11 6.37,4.09 13.26,6.16 20.48,6.16 14.89,0 28.52,-8.39 44.32,-18.1 10.04,-6.19 20.42,-12.58 31.94,-17.36 1.29,-0.43 6.59,-1.07 15.24,-1.07 10.29,0 17.68,0.91 19.26,1.46 11.25,4.96 21.13,11.48 30.69,17.76 14.65,9.66 28.48,18.77 43.49,18.77 6.44,0 12.68,-1.7 18.57,-5.05 32.49,-18.46 38.68,-69.1 13.8,-112.89 -1.24,-2.19 -2.73,-4.25 -4.23,-6.26z"/>
    <path class="fil2" d="M344.81 317.54c34.45,0 62.48,-37.62 62.48,-83.86 0,-46.25 -28.03,-83.87 -62.48,-83.87 -34.46,0 -62.49,37.62 -62.49,83.87 0,46.24 28.03,83.86 62.49,83.86z"/>
    <path class="fil2" d="M447.43 274.47c-27.62,0 -49.23,28.65 -49.23,65.21 0,36.55 21.63,65.2 49.23,65.2 27.6,0 49.25,-28.65 49.25,-65.2 0,-36.56 -21.63,-65.21 -49.25,-65.21z"/>
    <path class="fil2" d="M163.74 339.68c0,-36.56 -21.63,-65.21 -49.24,-65.21 -27.6,0 -49.24,28.65 -49.24,65.21 0,36.55 21.64,65.2 49.24,65.2 27.61,0 49.24,-28.65 49.24,-65.2z"/>
   </g>
  </g>
  <g id="_2611241910480">
  </g>
  <g id="_2611241908560">
  </g>
  <g id="_2611241910160">
  </g>
  <g id="_2611241908816">
  </g>
  <g id="_2611241975696">
  </g>
  <g id="_2611241974864">
  </g>
  <g id="_2611241975440">
  </g>
  <g id="_2611241973936">
  </g>
  <g id="_2611241973776">
  </g>
  <g id="_2611241973712">
  </g>
  <g id="_2611241971856">
  </g>
  <g id="_2611241970928">
  </g>
  <g id="_2611241971248">
  </g>
  <g id="_2611241971024">
  </g>
  <g id="_2611241969616">
  </g>
 </g>
</svg>
