<svg width="33" height="30" viewBox="0 0 33 30" fill="none" xmlns="http://www.w3.org/2000/svg">
<path d="M10.6324 19.3362H10.6339C10.6352 19.3362 10.6364 19.336 10.6377 19.336H28.1662C28.5977 19.336 28.9771 19.0497 29.0957 18.6348L32.9629 5.09961C33.0462 4.80781 32.9878 4.4941 32.8053 4.2519C32.6225 4.0097 32.3368 3.86719 32.0334 3.86719H8.40271L7.7116 0.757074C7.61316 0.314713 7.2209 0 6.76771 0H0.96692C0.432915 0 0.00012207 0.432793 0.00012207 0.966798C0.00012207 1.5008 0.432915 1.9336 0.96692 1.9336H5.99226C6.11462 2.48472 9.29951 16.817 9.4828 17.6416C8.45533 18.0882 7.73451 19.1126 7.73451 20.3028C7.73451 21.902 9.03566 23.2032 10.6349 23.2032H28.1662C28.7002 23.2032 29.133 22.7704 29.133 22.2364C29.133 21.7024 28.7002 21.2696 28.1662 21.2696H10.6349C10.1019 21.2696 9.66811 20.8358 9.66811 20.3028C9.66811 19.7705 10.1004 19.3375 10.6324 19.3362ZM30.7516 5.80079L27.4368 17.4024H11.4104L8.83223 5.80079H30.7516Z" fill="#689493"/>
<path d="M9.66811 26.1035C9.66811 27.7028 10.9693 29.0039 12.5685 29.0039C14.1677 29.0039 15.4689 27.7028 15.4689 26.1035C15.4689 24.5043 14.1677 23.2031 12.5685 23.2031C10.9693 23.2031 9.66811 24.5043 9.66811 26.1035ZM12.5685 25.1367C13.1015 25.1367 13.5353 25.5705 13.5353 26.1035C13.5353 26.6365 13.1015 27.0703 12.5685 27.0703C12.0355 27.0703 11.6017 26.6365 11.6017 26.1035C11.6017 25.5705 12.0355 25.1367 12.5685 25.1367Z" fill="#689493"/>
<path d="M23.3322 26.1035C23.3322 27.7028 24.6333 29.0039 26.2326 29.0039C27.8318 29.0039 29.133 27.7028 29.133 26.1035C29.133 24.5043 27.8318 23.2031 26.2326 23.2031C24.6333 23.2031 23.3322 24.5043 23.3322 26.1035ZM26.2326 25.1367C26.7656 25.1367 27.1994 25.5705 27.1994 26.1035C27.1994 26.6365 26.7656 27.0703 26.2326 27.0703C25.6996 27.0703 25.2658 26.6365 25.2658 26.1035C25.2658 25.5705 25.6996 25.1367 26.2326 25.1367Z" fill="#689493"/>
</svg>
