<svg width="37" height="44" viewBox="0 0 37 44" fill="none" xmlns="http://www.w3.org/2000/svg">
<path d="M18.2203 21.1948C21.1552 21.1948 23.6965 20.1505 25.773 18.09C27.8494 16.0299 28.9021 13.5092 28.9021 10.5971C28.9021 7.68598 27.8494 5.16494 25.7726 3.10413C23.6959 1.04433 21.1548 0 18.2203 0C15.2851 0 12.7445 1.04433 10.668 3.10447C8.59154 5.1646 7.53859 7.68564 7.53859 10.5971C7.53859 13.5092 8.59154 16.0302 10.6683 18.0904C12.7451 20.1502 15.2861 21.1948 18.2203 21.1948Z" fill="#689493"/>
<path d="M36.9105 33.8336C36.8506 32.9763 36.7295 32.041 36.5511 31.0534C36.3711 30.0584 36.1394 29.1178 35.8619 28.2581C35.5753 27.3696 35.1856 26.4921 34.7037 25.6512C34.2037 24.7784 33.6163 24.0184 32.9572 23.393C32.268 22.7387 31.4241 22.2127 30.4483 21.829C29.4759 21.4473 28.3982 21.2539 27.2455 21.2539C26.7928 21.2539 26.3549 21.4382 25.5094 21.9844C24.989 22.3211 24.3803 22.7105 23.7009 23.1412C23.12 23.5084 22.333 23.8525 21.3609 24.164C20.4125 24.4685 19.4495 24.6229 18.4991 24.6229C17.5487 24.6229 16.5861 24.4685 15.6367 24.164C14.6656 23.8529 13.8786 23.5088 13.2983 23.1415C12.6253 22.7149 12.0163 22.3255 11.4882 21.9841C10.6436 21.4379 10.2055 21.2536 9.75275 21.2536C8.59965 21.2536 7.52234 21.4473 6.55026 21.8293C5.57513 22.2123 4.73095 22.7384 4.04105 23.3933C3.38228 24.019 2.79457 24.7787 2.29516 25.6512C1.81369 26.4921 1.42391 27.3692 1.13699 28.2585C0.859879 29.1182 0.628109 30.0584 0.448106 31.0534C0.269795 32.0397 0.148666 32.9753 0.0887776 33.8346C0.0299046 34.6765 0.0001297 35.5503 0.0001297 36.4329C0.0001297 38.7297 0.736042 40.5891 2.18723 41.9604C3.62048 43.3135 5.51694 44 7.82314 44H29.1771C31.4833 44 33.3791 43.3139 34.8127 41.9604C36.2642 40.5901 37.0001 38.7303 37.0001 36.4325C36.9998 35.546 36.9697 34.6715 36.9105 33.8336Z" fill="#689493"/>
</svg>
