<svg width="20" height="20" viewBox="0 0 20 20" fill="none" xmlns="http://www.w3.org/2000/svg">
<path fill-rule="evenodd" clip-rule="evenodd" d="M17.086 2.90649C15.2059 1.0332 12.7056 0.00109863 10.0418 0C4.55291 0 0.0857374 4.44568 0.0835296 9.90979C0.0827937 11.6565 0.541286 13.3616 1.41277 14.8645L0 20L5.27905 18.6218C6.73364 19.4115 8.37123 19.8276 10.0378 19.8281H10.0419C15.5302 19.8281 19.9979 15.3821 20 9.91772C20.0011 7.26953 18.9662 4.77966 17.086 2.90649ZM10.0418 18.1544H10.0384C8.55326 18.1538 7.0967 17.7566 5.82573 17.0062L5.52362 16.8276L2.39096 17.6455L3.22711 14.6058L3.03025 14.2942C2.2017 12.9827 1.76418 11.4668 1.76492 9.9104C1.76663 5.36877 5.47971 1.67383 10.0451 1.67383C12.2559 1.67456 14.3341 2.53247 15.8967 4.08948C17.4594 5.64648 18.3195 7.71606 18.3187 9.91711C18.3168 14.4591 14.6039 18.1544 10.0418 18.1544ZM14.5819 11.9851C14.3331 11.8611 13.1097 11.2622 12.8816 11.1794C12.6537 11.0968 12.4876 11.0557 12.3219 11.3035C12.1559 11.5513 11.6792 12.1091 11.534 12.2743C11.3887 12.4396 11.2437 12.4603 10.9949 12.3363C10.746 12.2124 9.94431 11.9508 8.99384 11.1072C8.25422 10.4506 7.75488 9.63965 7.60966 9.39185C7.46467 9.1438 7.60843 9.02271 7.71882 8.88647C7.98818 8.55359 8.2579 8.20459 8.34082 8.03943C8.42385 7.87415 8.38227 7.72949 8.31996 7.60559C8.2579 7.48169 7.76028 6.26282 7.55299 5.76685C7.35085 5.28418 7.14589 5.34937 6.99306 5.3418C6.84808 5.33459 6.68212 5.33313 6.51617 5.33313C6.35033 5.33313 6.08073 5.39502 5.85259 5.64307C5.62457 5.89099 4.98185 6.48999 4.98185 7.70886C4.98185 8.92773 5.87344 10.1052 5.99782 10.2705C6.12219 10.4358 7.75243 12.937 10.2484 14.0095C10.842 14.2649 11.3054 14.4171 11.6669 14.5312C12.263 14.7197 12.8053 14.6931 13.2341 14.6294C13.7122 14.5582 14.7061 14.0303 14.9136 13.4519C15.1209 12.8734 15.1209 12.3777 15.0586 12.2743C14.9966 12.171 14.8306 12.1091 14.5819 11.9851Z" fill="#689493"/>
</svg>
