<svg width="470" height="233" viewBox="0 0 470 233" fill="none" xmlns="http://www.w3.org/2000/svg">
<path fill-rule="evenodd" clip-rule="evenodd" d="M467.679 185.715L430.5 181.995C429.086 181.853 427.821 182.889 427.679 184.303L427.29 188.197L421.347 187.602C419.933 187.461 418.667 188.496 418.525 189.91L415.223 222.915C414.949 225.658 416.948 228.114 419.685 228.408L419.695 228.409C419.704 228.41 419.712 228.412 419.721 228.412L446.053 231.047C446.464 231.088 446.83 230.789 446.871 230.377C446.913 229.966 446.613 229.6 446.202 229.558L423.426 227.279C424.407 226.466 425.083 225.281 425.219 223.915L426.961 206.508C427.002 206.097 426.702 205.73 426.291 205.689C425.88 205.648 425.513 205.948 425.472 206.359L423.73 223.766C423.538 225.694 421.817 227.108 419.889 226.925C419.883 226.925 419.877 226.923 419.87 226.923C417.935 226.729 416.518 224.997 416.712 223.064L420.014 190.059C420.073 189.466 420.604 189.032 421.198 189.091L427.141 189.686L425.75 203.58C425.709 203.991 426.009 204.358 426.42 204.399C426.831 204.44 427.198 204.14 427.239 203.729L429.168 184.452C429.227 183.859 429.758 183.424 430.351 183.484L467.53 187.204C468.123 187.263 468.558 187.794 468.498 188.388L464.55 227.85C464.356 229.785 462.624 231.202 460.689 231.008L448.981 229.836C448.569 229.795 448.203 230.095 448.162 230.506C448.121 230.918 448.42 231.284 448.832 231.325L460.54 232.497C463.296 232.773 465.763 230.755 466.038 227.999L469.987 188.536C470.129 187.122 469.093 185.856 467.679 185.715V185.715Z" fill="#FF4940"/>
<path fill-rule="evenodd" clip-rule="evenodd" d="M432.765 212.22L442.974 213.242C443.945 213.339 444.814 212.628 444.911 211.656L445.933 201.447C446.03 200.476 445.319 199.607 444.348 199.51L434.139 198.488C433.168 198.391 432.299 199.102 432.201 200.073L431.18 210.283C431.083 211.254 431.794 212.123 432.765 212.22ZM433.69 200.222C433.705 200.072 433.84 199.962 433.99 199.977L444.199 200.999C444.349 201.014 444.459 201.148 444.444 201.298L443.423 211.508C443.408 211.658 443.273 211.768 443.123 211.753L432.914 210.731C432.763 210.716 432.654 210.582 432.669 210.431L433.69 200.222Z" fill="#FF4940"/>
<path fill-rule="evenodd" clip-rule="evenodd" d="M448.666 201.446L462.481 202.828C462.892 202.869 463.259 202.569 463.3 202.158C463.341 201.747 463.041 201.38 462.63 201.339L448.815 199.957C448.404 199.916 448.037 200.215 447.996 200.627C447.955 201.038 448.255 201.405 448.666 201.446Z" fill="#FF4940"/>
<path fill-rule="evenodd" clip-rule="evenodd" d="M448.054 207.567L461.869 208.95C462.28 208.991 462.647 208.691 462.688 208.28C462.729 207.868 462.429 207.502 462.018 207.461L448.202 206.078C447.791 206.037 447.425 206.337 447.384 206.748C447.343 207.159 447.643 207.526 448.054 207.567Z" fill="#FF4940"/>
<path fill-rule="evenodd" clip-rule="evenodd" d="M447.441 213.689L461.256 215.071C461.667 215.112 462.034 214.812 462.075 214.401C462.116 213.99 461.816 213.624 461.405 213.582L447.59 212.2C447.179 212.159 446.812 212.459 446.771 212.87C446.73 213.281 447.03 213.648 447.441 213.689Z" fill="#FF4940"/>
<path fill-rule="evenodd" clip-rule="evenodd" d="M431.136 218.24L460.644 221.192C461.055 221.233 461.422 220.934 461.463 220.522C461.504 220.111 461.204 219.745 460.793 219.703L431.285 216.751C430.874 216.71 430.507 217.01 430.466 217.421C430.425 217.832 430.725 218.198 431.136 218.24V218.24Z" fill="#FF4940"/>
<path fill-rule="evenodd" clip-rule="evenodd" d="M430.523 224.361L460.031 227.314C460.442 227.355 460.809 227.055 460.85 226.644C460.891 226.233 460.591 225.866 460.18 225.825L430.672 222.872C430.261 222.831 429.894 223.131 429.853 223.542C429.812 223.954 430.112 224.32 430.523 224.361Z" fill="#FF4940"/>
<path fill-rule="evenodd" clip-rule="evenodd" d="M432.778 194.505L433.565 186.64C433.581 186.478 433.67 186.363 433.832 186.293C433.994 186.224 434.184 186.2 434.402 186.222C434.693 186.251 434.91 186.326 435.053 186.446C435.196 186.567 435.343 186.81 435.495 187.176L437.381 191.93L437.869 187.058C437.885 186.897 437.974 186.783 438.135 186.718C438.296 186.652 438.487 186.63 438.705 186.652C438.923 186.674 439.105 186.733 439.25 186.829C439.396 186.926 439.46 187.054 439.444 187.216L438.656 195.093C438.641 195.247 438.549 195.36 438.383 195.433C438.217 195.507 438.029 195.533 437.818 195.512C437.39 195.469 437.103 195.273 436.959 194.924L434.841 189.791L434.353 194.663C434.338 194.817 434.247 194.93 434.081 195.003C433.915 195.076 433.726 195.102 433.516 195.081C433.298 195.059 433.116 194.997 432.972 194.892C432.827 194.788 432.762 194.659 432.778 194.505Z" fill="#FF4940"/>
<path fill-rule="evenodd" clip-rule="evenodd" d="M440.11 195.239L440.897 187.373C440.913 187.22 440.993 187.106 441.14 187.03C441.286 186.955 441.452 186.927 441.638 186.945L445.952 187.377C446.114 187.393 446.23 187.475 446.301 187.62C446.372 187.766 446.399 187.928 446.382 188.106C446.362 188.3 446.301 188.461 446.198 188.589C446.095 188.718 445.967 188.774 445.814 188.759L442.384 188.416L442.142 190.84L443.984 191.024C444.137 191.039 444.252 191.114 444.329 191.248C444.405 191.382 444.435 191.534 444.418 191.704C444.403 191.858 444.346 191.992 444.249 192.11C444.151 192.226 444.022 192.276 443.86 192.26L442.018 192.076L441.774 194.512L445.204 194.855C445.357 194.871 445.472 194.951 445.547 195.098C445.622 195.244 445.65 195.414 445.631 195.608C445.613 195.786 445.555 195.939 445.456 196.068C445.358 196.197 445.227 196.253 445.066 196.237L440.751 195.805C440.565 195.786 440.408 195.726 440.28 195.623C440.151 195.521 440.095 195.393 440.11 195.239H440.11Z" fill="#FF4940"/>
<path fill-rule="evenodd" clip-rule="evenodd" d="M447.174 188.136C447.191 187.967 447.315 187.83 447.546 187.727C447.776 187.623 448.009 187.583 448.243 187.607C448.534 187.636 448.697 187.758 448.732 187.974L449.99 194.735L451.442 190.62C451.544 190.336 451.817 190.217 452.261 190.261C452.698 190.305 452.938 190.476 452.982 190.774L453.59 195.095L456.162 188.717C456.239 188.513 456.424 188.425 456.715 188.454C456.949 188.478 457.169 188.563 457.374 188.71C457.58 188.857 457.674 189.015 457.657 189.185C457.652 189.234 457.639 189.281 457.619 189.328L454.456 196.711C454.299 197.055 453.938 197.198 453.373 197.142C453.13 197.117 452.917 197.049 452.732 196.937C452.548 196.825 452.443 196.681 452.42 196.508L451.972 193.158L450.857 196.351C450.799 196.517 450.669 196.637 450.466 196.71C450.263 196.783 450.04 196.808 449.797 196.784C449.547 196.759 449.329 196.69 449.145 196.578C448.96 196.466 448.852 196.322 448.821 196.147L447.184 188.284C447.172 188.234 447.169 188.185 447.174 188.136Z" fill="#FF4940"/>
<path fill-rule="evenodd" clip-rule="evenodd" d="M457.373 196.061C457.392 195.875 457.481 195.694 457.642 195.518C457.802 195.343 457.971 195.264 458.149 195.282C458.254 195.292 458.368 195.354 458.491 195.468C458.615 195.582 458.733 195.707 458.846 195.841C458.959 195.975 459.128 196.104 459.352 196.228C459.576 196.353 459.83 196.429 460.112 196.457C460.5 196.496 460.832 196.439 461.109 196.287C461.385 196.135 461.54 195.886 461.575 195.539C461.599 195.296 461.55 195.073 461.428 194.869C461.306 194.665 461.136 194.489 460.918 194.34C460.7 194.192 460.46 194.045 460.197 193.901C459.934 193.756 459.67 193.597 459.406 193.424C459.142 193.251 458.904 193.062 458.692 192.857C458.48 192.652 458.318 192.391 458.207 192.074C458.096 191.757 458.06 191.404 458.099 191.017C458.142 190.582 458.267 190.207 458.474 189.892C458.681 189.577 458.939 189.342 459.248 189.187C459.558 189.032 459.882 188.927 460.222 188.875C460.562 188.822 460.918 188.813 461.29 188.851C461.499 188.871 461.72 188.908 461.952 188.961C462.183 189.014 462.427 189.086 462.683 189.179C462.939 189.271 463.142 189.397 463.294 189.554C463.445 189.712 463.512 189.886 463.493 190.077C463.475 190.257 463.399 190.437 463.267 190.618C463.135 190.799 462.972 190.88 462.778 190.86C462.705 190.853 462.515 190.756 462.207 190.57C461.899 190.385 461.547 190.272 461.151 190.232C460.715 190.189 460.369 190.238 460.115 190.38C459.86 190.522 459.717 190.738 459.688 191.028C459.665 191.263 459.741 191.477 459.918 191.67C460.095 191.863 460.321 192.028 460.597 192.166C460.873 192.304 461.17 192.472 461.489 192.671C461.807 192.871 462.101 193.082 462.368 193.304C462.635 193.527 462.848 193.831 463.005 194.218C463.162 194.606 463.216 195.046 463.167 195.538C463.084 196.367 462.755 196.98 462.181 197.377C461.606 197.774 460.887 197.93 460.023 197.843C459.255 197.767 458.612 197.543 458.095 197.173C457.576 196.803 457.336 196.432 457.373 196.061V196.061Z" fill="#FF4940"/>
<path d="M392.5 205.5C353.906 209.18 313.5 209 291.5 180" stroke="#FF4940" stroke-width="2.5" stroke-miterlimit="22.9256" stroke-dasharray="2.82 8.47"/>
<path fill-rule="evenodd" clip-rule="evenodd" d="M50.4583 0.0410248L2.25122 8.4652C0.772101 8.72365 -0.217472 10.1322 0.041045 11.6114L6.28111 47.3204C6.53963 48.7994 7.94813 49.789 9.42732 49.5305L57.6344 41.1064C59.1135 40.8479 60.1031 39.4394 59.8446 37.9602L53.6045 2.25119C53.346 0.772145 51.9375 -0.217421 50.4583 0.0410248ZM58.0591 38.2723C58.1453 38.7653 57.8155 39.2348 57.3224 39.3209L9.11533 47.7451C8.62229 47.8313 8.15281 47.5015 8.06667 47.0085L1.82653 11.2994C1.74038 10.8063 2.07016 10.3368 2.5632 10.2507L50.7703 1.82651C51.2634 1.74036 51.7328 2.07021 51.8191 2.56325L58.0591 38.2723Z" fill="#62D8DD"/>
<path fill-rule="evenodd" clip-rule="evenodd" d="M49.3751 3.914C49.1356 3.93457 48.9142 4.04956 48.7594 4.23354L31.1875 25.1334C30.6208 25.8078 29.6514 25.9773 28.8896 25.535L5.27119 11.833C4.9911 11.6706 4.64558 11.6699 4.36492 11.8313C4.08419 11.9927 3.9109 12.2917 3.9104 12.6156C3.90983 12.9394 4.08205 13.2389 4.36214 13.4012L27.9805 27.1023C29.5032 27.9879 31.4423 27.6491 32.5745 26.2995L50.1464 5.4006C50.3012 5.2167 50.3765 4.97883 50.3559 4.73932C50.3352 4.49981 50.2203 4.27824 50.0364 4.1236C49.8525 3.96868 49.6146 3.89335 49.3751 3.914Z" fill="#62D8DD"/>
<path fill-rule="evenodd" clip-rule="evenodd" d="M20.6443 28.2578C20.3159 28.2425 20.0051 28.4061 19.8318 28.6855L9.67371 44.2604C9.48795 44.5316 9.46361 44.8821 9.61013 45.1762C9.75665 45.4705 10.051 45.6623 10.3792 45.6776C10.7076 45.6929 11.0184 45.5292 11.1916 45.2499L21.3498 29.675C21.5355 29.4039 21.5599 29.0533 21.4133 28.7592C21.2669 28.465 20.9726 28.2731 20.6443 28.2578Z" fill="#62D8DD"/>
<path fill-rule="evenodd" clip-rule="evenodd" d="M40.777 25.0249C40.5194 24.8208 40.1714 24.7723 39.8677 24.8981C39.564 25.0238 39.3523 25.3041 39.3142 25.6305C39.2762 25.957 39.4179 26.2784 39.6846 26.4706L54.5228 37.6774C54.9225 37.9653 55.4788 37.8814 55.7757 37.4884C56.0726 37.0954 56.0014 36.5374 55.6153 36.2316L40.777 25.0249Z" fill="#62D8DD"/>
<path d="M75 20.6489C113.594 16.9687 154 17.1489 176 46.1489" stroke="#62D8DD" stroke-width="2.5" stroke-miterlimit="22.9256" stroke-dasharray="2.82 8.47"/>
</svg>
