<svg width="229" height="312" viewBox="0 0 229 312" fill="none" xmlns="http://www.w3.org/2000/svg">
<path d="M23.0738 43.461V47.0959C23.0738 53.5229 20.0447 56.7364 13.9865 56.7364H9.08727C3.02909 56.7364 0 53.5229 0 47.0959V9.64046C0 3.21349 3.02909 0 9.08727 0H13.9865C20.0447 0 23.0738 3.21349 23.0738 9.64046V16.0411H15.4879V10.1936C15.4879 7.98101 14.3553 6.87473 12.0901 6.87473H10.5886C8.58679 6.87473 7.5859 7.98101 7.5859 10.1936V46.5428C7.5859 48.7554 8.58679 49.8617 10.5886 49.8617H12.4851C14.487 49.8617 15.4879 48.7554 15.4879 46.5428V43.461H23.0738Z" fill="#289498"/>
<path d="M36.1912 56.7364H28.6053V9.71949C28.6053 3.23986 31.6344 0 37.6926 0H43.382C49.4402 0 52.4693 3.23986 52.4693 9.71949V56.7364H44.8834V35.9541H36.1912V56.7364ZM44.8834 29.0794V10.1936C44.8834 7.98101 43.7771 6.87473 41.5646 6.87473H39.51C37.2975 6.87473 36.1912 7.98101 36.1912 10.1936V29.0794H44.8834Z" fill="#289498"/>
<path d="M59.186 0H74.0417C79.8365 0 82.7339 3.23986 82.7339 9.71949V23.706C82.7339 28.6579 81.2326 31.7924 78.2298 33.1094L83.5241 56.7364H76.3333L71.355 33.8206H66.7719V56.7364H59.186V0ZM66.7719 27.3409H71.7502C74.0154 27.3409 75.148 25.9713 75.148 23.2319V10.9838C75.148 8.24442 74.0154 6.87473 71.7502 6.87473H66.7719V27.3409Z" fill="#289498"/>
<path d="M89.0555 56.7364V0H96.6415V56.7364H89.0555Z" fill="#289498"/>
<path d="M119.478 27.42V0H127.064V56.7364H119.478V45.4365L111.339 19.5969V56.7364H103.753V0H111.339L119.478 27.42Z" fill="#289498"/>
<path d="M151.086 56.7364V30.9758H141.762V56.7364H134.176V0H141.762V24.1011H151.086V0H158.672V56.7364H151.086Z" fill="#289498"/>
<path d="M174.555 56.7364C168.444 56.7364 165.389 53.5229 165.389 47.0959V9.71949C165.389 3.23986 168.418 0 174.476 0H181.746C187.804 0 190.833 3.23986 190.833 9.71949V47.0959C190.833 53.5229 187.778 56.7364 181.667 56.7364H174.555ZM176.373 49.8617H180.245C182.246 49.8617 183.247 48.7554 183.247 46.5428V10.1936C183.247 7.98101 182.115 6.87473 179.85 6.87473H176.294C174.081 6.87473 172.975 7.98101 172.975 10.1936V46.5428C172.975 48.7554 174.107 49.8617 176.373 49.8617Z" fill="#289498"/>
<path d="M210.193 56.7364V0H229V6.87473H217.779V24.1011H227.736V30.9758H217.779V49.8617H229V56.7364H210.193Z" fill="#289498"/>
<path d="M23.0738 128.566V132.2C23.0738 138.627 20.0447 141.841 13.9865 141.841H9.08727C3.02909 141.841 0 138.627 0 132.2V94.745C0 88.3181 3.02909 85.1046 9.08727 85.1046H13.9865C20.0447 85.1046 23.0738 88.3181 23.0738 94.745V101.146H15.4879V95.2982C15.4879 93.0856 14.3553 91.9793 12.0901 91.9793H10.5886C8.58679 91.9793 7.5859 93.0856 7.5859 95.2982V131.647C7.5859 133.86 8.58679 134.966 10.5886 134.966H12.4851C14.487 134.966 15.4879 133.86 15.4879 131.647V128.566H23.0738Z" fill="#289498"/>
<path d="M53.6545 85.1046V131.094C53.6545 138.259 50.5991 141.841 44.4882 141.841H38.0876C32.0294 141.841 29.0003 138.232 29.0003 131.015V85.1046H36.5862V131.252C36.5862 133.728 37.6925 134.966 39.9051 134.966H42.9868C45.0413 134.966 46.0686 133.728 46.0686 131.252V85.1046H53.6545Z" fill="#289498"/>
<path d="M60.7664 141.841V85.1046H68.3523V141.841H60.7664Z" fill="#289498"/>
<path d="M75.4642 141.841V85.1046H88.6605C95.7723 85.1046 99.3282 88.7395 99.3282 96.0093V133.623C99.3282 139.102 96.2991 141.841 90.2409 141.841H75.4642ZM83.0501 134.966H88.7395C90.7414 134.966 91.7423 134.123 91.7423 132.438V96.0884C91.7423 93.349 90.6097 91.9793 88.3444 91.9793H83.0501V134.966Z" fill="#289498"/>
<path d="M113.236 141.841H105.65V94.824C105.65 88.3444 108.679 85.1046 114.737 85.1046H120.426C126.485 85.1046 129.514 88.3444 129.514 94.824V141.841H121.928V121.059H113.236V141.841ZM121.928 114.184V95.2982C121.928 93.0856 120.822 91.9793 118.609 91.9793H116.554C114.342 91.9793 113.236 93.0856 113.236 95.2982V114.184H121.928Z" fill="#289498"/>
<path d="M136.231 141.841V85.1046H149.427C156.539 85.1046 160.095 88.7395 160.095 96.0093V133.623C160.095 139.102 157.065 141.841 151.007 141.841H136.231ZM143.816 134.966H149.506C151.508 134.966 152.509 134.123 152.509 132.438V96.0884C152.509 93.349 151.376 91.9793 149.111 91.9793H143.816V134.966Z" fill="#289498"/>
<path d="M175.582 141.841C169.472 141.841 166.416 138.627 166.416 132.2V94.824C166.416 88.3444 169.445 85.1046 175.503 85.1046H182.773C188.831 85.1046 191.861 88.3444 191.861 94.824V132.2C191.861 138.627 188.805 141.841 182.694 141.841H175.582ZM177.4 134.966H181.272C183.274 134.966 184.275 133.86 184.275 131.647V95.2982C184.275 93.0856 183.142 91.9793 180.877 91.9793H177.321C175.108 91.9793 174.002 93.0856 174.002 95.2982V131.647C174.002 133.86 175.135 134.966 177.4 134.966Z" fill="#289498"/>
<path d="M23.0738 213.67V217.305C23.0738 223.732 20.0447 226.946 13.9865 226.946H9.08727C3.02909 226.946 0 223.732 0 217.305V179.85C0 173.423 3.02909 170.209 9.08727 170.209H13.9865C20.0447 170.209 23.0738 173.423 23.0738 179.85V186.25H15.4879V180.403C15.4879 178.19 14.3553 177.084 12.0901 177.084H10.5886C8.58679 177.084 7.5859 178.19 7.5859 180.403V216.752C7.5859 218.965 8.58679 220.071 10.5886 220.071H12.4851C14.487 220.071 15.4879 218.965 15.4879 216.752V213.67H23.0738Z" fill="#289498"/>
<path d="M37.7716 226.946C31.6607 226.946 28.6053 223.732 28.6053 217.305V179.929C28.6053 173.449 31.6344 170.209 37.6926 170.209H44.9624C51.0206 170.209 54.0497 173.449 54.0497 179.929V217.305C54.0497 223.732 50.9943 226.946 44.8834 226.946H37.7716ZM39.589 220.071H43.461C45.4629 220.071 46.4638 218.965 46.4638 216.752V180.403C46.4638 178.19 45.3312 177.084 43.0659 177.084H39.51C37.2975 177.084 36.1912 178.19 36.1912 180.403V216.752C36.1912 218.965 37.3238 220.071 39.589 220.071Z" fill="#289498"/>
<path d="M76.1753 203.556L83.2081 170.209H91.5842V226.946H83.9983L84.7885 189.806L79.0991 216.673H73.2516L67.5621 189.806L68.3523 226.946H60.7664V170.209H69.1425L76.1753 203.556Z" fill="#289498"/>
<path d="M125.879 185.46V180.482C125.879 178.217 124.773 177.084 122.56 177.084H121.375C119.215 177.084 118.135 178.217 118.135 180.482V189.885C118.135 190.939 118.346 191.65 118.767 192.019C119.189 192.387 119.873 192.862 120.822 193.441L128.012 197.313C129.593 198.209 130.712 198.907 131.371 199.407C132.029 199.907 132.543 200.513 132.912 201.225C133.28 201.936 133.465 203.292 133.465 205.294V217.384C133.465 223.758 130.409 226.946 124.298 226.946H119.636C113.578 226.946 110.549 223.469 110.549 216.515V213.67H118.135V216.752C118.135 218.965 119.268 220.071 121.533 220.071H122.876C124.878 220.071 125.879 218.965 125.879 216.752V207.112C125.879 206.058 125.668 205.347 125.247 204.978C124.825 204.609 124.14 204.135 123.192 203.556L116.001 199.526C114.421 198.683 113.275 197.972 112.564 197.392C111.853 196.813 111.339 196.062 111.023 195.14C110.707 194.218 110.549 193.02 110.549 191.545V179.929C110.549 173.449 113.578 170.209 119.636 170.209H124.377C130.436 170.209 133.465 173.449 133.465 179.929V185.46H125.879Z" fill="#289498"/>
<path d="M139.786 226.946V170.209H158.593V177.084H147.372V194.31H157.329V201.185H147.372V220.071H158.593V226.946H139.786Z" fill="#289498"/>
<path d="M188.7 170.209V216.199C188.7 223.363 185.644 226.946 179.533 226.946H173.133C167.075 226.946 164.046 223.337 164.046 216.12V170.209H171.631V216.357C171.631 218.833 172.738 220.071 174.95 220.071H178.032C180.087 220.071 181.114 218.833 181.114 216.357V170.209H188.7Z" fill="#289498"/>
<path d="M0 255H13.8285C19.9394 255 22.9948 258.24 22.9948 264.719V281.551C22.9948 287.978 19.9657 291.191 13.9075 291.191H7.5859V311.736H0V255ZM7.5859 284.316H12.4061C14.408 284.316 15.4089 283.21 15.4089 280.998V265.194C15.4089 262.981 14.2762 261.875 12.011 261.875H7.5859V284.316Z" fill="#289498"/>
<path d="M29.0004 311.736V255H47.8071V261.875H36.5863V279.101H46.5428V285.976H36.5863V304.862H47.8071V311.736H29.0004Z" fill="#289498"/>
<path d="M65.3495 261.875V311.736H57.7635V261.875H50.4937V255H72.6193V261.875H65.3495Z" fill="#289498"/>
</svg>
